<svg xmlns="http://www.w3.org/2000/svg" xmlns:xlink="http://www.w3.org/1999/xlink" viewBox="0 0 500 139.2" xmlns:v="https://vecta.io/nano"><path d="M66.5 13.7c-16.7 0-25.7 9.7-25.7 25 0 24.2 18.7 55 25.1 59.1 18.8-17.7 25.4-47 25.4-59 0-19.3-13.3-25.1-24.8-25.1zm-.4 38.4a14.77 14.77 0 0 1-14.8-14.8 14.77 14.77 0 0 1 14.8-14.8 14.77 14.77 0 0 1 14.8 14.8 14.77 14.77 0 0 1-14.8 14.8z" fill="#25ae88"/><path d="M40.6 34.1c-16.6 0-25.7 9.7-25.7 25 0 24.2 18.7 55 25.1 59.1 18.8-17.7 25.4-47 25.4-59 0-19.4-13.3-25.1-24.8-25.1zm-.4 38.4a14.77 14.77 0 0 1-14.8-14.8 14.77 14.77 0 0 1 14.8-14.8A14.77 14.77 0 0 1 55 57.7c0 8.2-6.7 14.8-14.8 14.8z" fill="#f1bf17"/><g fill="#1c4c7c"><path d="M144.3 87V68.3h-21.1V87h-9.5V42.8h9.5v17.4h21.1V42.8h9.6V87h-9.6zm16-16.1c0-9.3 7-16.8 16.7-16.8s16.2 7.2 16.2 17.6v2h-24c.6 3.9 3.8 7.2 9.3 7.2 2.7 0 6.5-1.1 8.6-3.1l3.8 5.6c-3.2 2.9-8.3 4.4-13.3 4.4-9.9 0-17.3-6.6-17.3-16.9zm16.7-9.8c-5.3 0-7.6 3.6-7.9 6.8H185c-.2-3.1-2.4-6.8-8-6.8z"/><use xlink:href="#B"/><path d="M227.8 82.9v16.3h-8.5V55h8.5v4c2.5-3.1 6-4.8 10-4.8 8.3 0 14.3 6.1 14.3 16.8s-6 16.8-14.3 16.8c-3.9 0-7.3-1.6-10-4.9zm15.5-12c0-5.5-3.3-9.3-8.2-9.3-2.7 0-5.8 1.5-7.3 3.7v11.3c1.4 2.1 4.6 3.7 7.3 3.7 4.9 0 8.2-3.8 8.2-9.4zm12.9 0c0-9.3 7-16.8 16.7-16.8s16.2 7.2 16.2 17.6v2h-24c.6 3.9 3.8 7.2 9.3 7.2 2.7 0 6.5-1.1 8.6-3.1l3.8 5.6c-3.2 2.9-8.3 4.4-13.3 4.4-9.9 0-17.3-6.6-17.3-16.9zm16.8-9.8c-5.3 0-7.6 3.6-7.9 6.8H281c-.3-3.1-2.4-6.8-8-6.8zM295.3 87V55h8.5v4.3c2.3-2.8 6.3-5.1 10.3-5.1v8.2c-.6-.1-1.3-.2-2.3-.2-2.8 0-6.5 1.6-8 3.7V87h-8.5zm24.3 0V42.8h20.9c9.7 0 15 6.5 15 14.2s-5.4 14.2-15 14.2h-11.4V87h-9.5zm26.1-30c0-3.7-2.9-6-6.6-6h-10v11.9h10c3.7 0 6.6-2.2 6.6-5.9z"/><use xlink:href="#B" x="161.8"/><path d="M403.3 87v-4.1c-2.5 3.2-6 4.9-10 4.9-8.1 0-14.3-6.1-14.3-16.8 0-10.4 6.1-16.8 14.3-16.8 3.8 0 7.4 1.6 10 4.9V55h8.6v32h-8.6 0zm0-10.4V65.4c-1.4-2.1-4.5-3.7-7.3-3.7-4.9 0-8.2 3.8-8.2 9.3 0 5.6 3.3 9.3 8.2 9.3 2.8 0 5.9-1.5 7.3-3.7zm14.9-5.7c0-9.8 7.2-16.8 17.1-16.8 6.6 0 10.6 2.8 12.8 5.8l-5.5 5.2c-1.5-2.2-3.9-3.5-6.8-3.5-5.1 0-8.8 3.7-8.8 9.3s3.6 9.3 8.8 9.3c2.9 0 5.3-1.3 6.8-3.5l5.5 5.2c-2.1 2.9-6.1 5.8-12.8 5.8-9.9.1-17.1-6.9-17.1-16.8zm33.4 0c0-9.3 7-16.8 16.7-16.8s16.2 7.2 16.2 17.6v2h-24c.6 3.9 3.8 7.2 9.3 7.2 2.7 0 6.5-1.1 8.6-3.1l3.8 5.6c-3.2 2.9-8.3 4.4-13.3 4.4-9.9 0-17.3-6.6-17.3-16.9zm16.7-9.8c-5.3 0-7.6 3.6-7.9 6.8h15.9c-.2-3.1-2.4-6.8-8-6.8z"/></g><defs ><path id="B" d="M199.4 79V42.8h8.5v33.9c0 2.1 1.1 3.6 2.9 3.6 1.3 0 2.5-.5 2.9-1l1.8 6.4c-1.3 1.1-3.6 2.1-7.1 2.1-5.9 0-9-3.1-9-8.8z"/></defs></svg>